<?xml version="1.0" encoding="UTF-8"?>
<svg id="Calque_1" data-name="Calque 1" xmlns="http://www.w3.org/2000/svg" viewBox="0 0 1376.35 664.22" fill="#f9e9da">
  <path class="cls-1" d="M108.78,664.03c9.27-.52,18.54-1.11,27.81-1.55,45.43-2.17,90.87-4.24,136.31-6.45,78.22-3.8,156.43-7.7,234.65-11.5,52.59-2.55,105.19-4.97,157.78-7.51,64.9-3.15,129.8-6.4,194.71-9.54,45.1-2.19,90.21-4.25,135.31-6.42,57.08-2.75,114.16-5.58,171.24-8.35,38.94-1.89,77.88-3.8,116.83-5.52,4.16-.18,5.87-1.03,6.46-5.67,7.33-58.33,14.91-116.63,22.59-174.91.54-4.07-.72-5.79-4.32-7.45-66.18-30.6-132.32-61.31-198.37-92.18-2.54-1.19-5.03-3.83-6.21-6.4-19.42-42.38-38.66-84.84-57.82-127.33-1.34-2.98-3.02-4.63-6.27-5.55-101.06-28.55-202.08-57.22-303.11-85.87-18.08-5.13-36.15-10.3-55.37-15.77,11.87,66.42,23.61,132.15,35.35,197.88l-.85.31c-40.77-94.4-81.55-188.8-122.76-284.23,11.94,3.36,22.77,6.39,33.59,9.46,144.9,41.12,289.79,82.25,434.69,123.38,7.04,2,14.17,3.75,21.09,6.11,2.16.74,4.56,2.74,5.49,4.78,20.1,43.9,40.06,87.87,59.88,131.89,1.76,3.91,4.21,6.26,8.08,8.05,72.22,33.42,144.35,67.01,216.58,100.4,3.8,1.75,4.58,3.68,4.07,7.56-7.68,58.62-15.22,117.27-22.78,175.91-4.05,31.38-8.07,62.77-12.11,94.15-.08.64-.31,1.26-.64,2.55H108.82c-.01-.06-.02-.13-.04-.19Z"/>
  <path class="cls-1" d="M807.54,461.86v-96.89h70.12v215.13c-5.77,0-11.38,0-16.99,0-12.16,0-24.33-.19-36.48.1-4.13.1-6.67-1.32-9.22-4.42-24.36-29.56-48.86-59.01-73.33-88.48-1.02-1.22-2.12-2.37-4.07-4.55v97.06h-70.04v-214.88c1.51-.11,2.94-.3,4.38-.3,16.66-.02,33.32.09,49.98-.09,3.56-.04,5.79,1.21,7.99,3.88,24.05,29.16,48.22,58.24,72.36,87.33,1.43,1.73,2.94,3.39,5.29,6.11Z"/>
  <path class="cls-1" d="M0,364.86h71.96v75.81h66.31v-75.75h72.06v214.88h-71.78v-78.58h-66.51v78.58H0v-214.93Z"/>
  <path class="cls-1" d="M635.43,365v54.21h-102.25v25.24h89.74v52.48h-89.87v28.02h106.19v54.88h-177.17v-214.83h173.36Z"/>
  <path class="cls-1" d="M1146.84,579.88h-74.27c-4.1-10.74-8.42-21.54-12.32-32.49-1.34-3.75-3.21-4.95-7.21-4.92-23.66.2-47.32.19-70.98,0-3.89-.03-5.47,1.36-6.71,4.85-3.51,9.88-7.32,19.65-11.27,29.36-.58,1.43-2.57,3.26-3.92,3.27-22.99.19-45.98.12-68.98.1-.3,0-.6-.21-1.45-.52,2.94-6.86,5.83-13.7,8.79-20.52,27.43-63.21,54.91-126.41,82.23-189.68,1.58-3.65,3.43-4.84,7.37-4.8,20.49.21,40.99.18,61.48.03,3.14-.02,4.7.95,5.95,3.83,29.88,69.04,59.86,138.05,89.79,207.06.57,1.31.92,2.72,1.5,4.44ZM1017.74,436.34c-7.16,18.72-13.77,36.02-20.46,53.49h40.96c-6.79-17.71-13.37-34.9-20.5-53.49Z"/>
  <path class="cls-1" d="M339.26,438.92c7.59-12.84,14.69-24.85,21.8-36.86,6.78-11.47,13.48-22.99,20.45-34.33.91-1.49,3.25-2.96,4.93-2.98,21.33-.2,42.66-.12,63.99-.11.47,0,.94.15,1.95.33-.71,1.45-1.23,2.75-1.93,3.94-25.13,42.79-50.31,85.55-75.31,128.42-1.66,2.84-2.65,6.5-2.69,9.78-.23,22.33-.13,44.66-.13,66.99,0,1.8,0,3.59,0,5.68h-71.82c-.09-1.73-.26-3.48-.26-5.23-.03-23,.05-45.99-.14-68.99-.02-2.81-.9-5.94-2.32-8.36-25.16-42.77-50.47-85.45-75.74-128.16-.67-1.12-1.2-2.33-2.26-4.43,2.22,0,3.79,0,5.35,0,22,0,43.99.08,65.99-.12,3.53-.03,5.33,1.24,7.02,4.15,13.46,23.18,27.06,46.28,41.13,70.27Z"/>
  <path class="cls-1" d="M1032.06,310.09c-48.62-24.27-96.79-48.31-146.36-73.06,2.64-.26,3.8-.47,4.95-.47,35.28-.03,70.57-.02,105.85-.07,2.65,0,4.61.22,5.88,3.2,9.79,22.94,19.76,45.79,29.66,68.68.11.26.01.62.01,1.71Z"/>
</svg>